<svg width="250" height="100" viewBox="0 0 250 100" fill="none" xmlns="http://www.w3.org/2000/svg">
<g clip-path="url(#clip0_581_2)">
<g filter="url(#filter0_d_581_2)">
<path d="M93.9925 39.422H99.8725V44.224H93.9925V56.572C93.9925 59.0547 94.9399 60.296 96.8345 60.296C97.7165 60.296 98.7455 59.9857 99.9215 59.365V64.706C99.1049 65 98.3372 65.2123 97.6185 65.343C96.9325 65.5063 96.1485 65.588 95.2665 65.588C90.1052 65.588 87.5245 62.5827 87.5245 56.572V44.224H83.8005V39.422H87.5245V32.562L93.9925 30.308V39.422ZM120.08 38.834V45.204H119.247C116.699 45.204 114.624 45.9063 113.024 47.311V65H106.556V45.106L105.478 39.422H111.946L112.583 42.803C113.661 41.333 114.641 40.304 115.523 39.716C116.405 39.128 117.385 38.834 118.463 38.834H120.08ZM129.533 35.6C128.422 35.6 127.475 35.2243 126.691 34.473C125.907 33.7217 125.515 32.7417 125.515 31.533C125.515 30.3243 125.907 29.3443 126.691 28.593C127.475 27.8417 128.422 27.466 129.533 27.466C130.644 27.466 131.591 27.8417 132.375 28.593C133.159 29.3443 133.551 30.3243 133.551 31.533C133.551 32.7417 133.159 33.7217 132.375 34.473C131.591 35.2243 130.644 35.6 129.533 35.6ZM132.767 39.422V65H126.299V39.471L132.767 39.422ZM155.173 38.883C157.101 38.883 158.799 39.4383 160.269 40.549C161.772 41.627 162.932 43.1623 163.748 45.155C164.598 47.115 165.022 49.3853 165.022 51.966C165.022 54.514 164.532 56.8333 163.552 58.924C162.572 60.982 161.217 62.6153 159.485 63.824C157.787 65 155.859 65.588 153.703 65.588C151.09 65.588 148.771 65.049 146.745 63.971V76.368H140.277V45.106L139.199 39.422H145.128L146.157 43.048C147.333 41.7087 148.705 40.6797 150.273 39.961C151.841 39.2423 153.475 38.883 155.173 38.883ZM152.38 60.247C156.268 60.247 158.211 57.5193 158.211 52.064C158.211 49.5487 157.819 47.605 157.035 46.233C156.284 44.861 155.173 44.175 153.703 44.175C151.351 44.175 149.032 45.3183 146.745 47.605V59.463C148.836 59.9857 150.714 60.247 152.38 60.247Z" fill="#2D2D2D"/>
<path d="M191.857 65.49C189.636 65.49 187.611 64.951 185.781 63.873C183.985 62.795 182.547 61.3413 181.469 59.512C180.424 57.6827 179.901 55.641 179.901 53.387C179.901 51.1657 180.424 49.1567 181.469 47.36C182.547 45.5633 183.985 44.1423 185.781 43.097C187.611 42.019 189.636 41.48 191.857 41.48C194.111 41.48 196.137 42.0027 197.933 43.048C199.73 44.0933 201.151 45.5307 202.196 47.36C203.274 49.1567 203.813 51.1657 203.813 53.387C203.813 55.6737 203.274 57.7317 202.196 59.561C201.151 61.3577 199.73 62.795 197.933 63.873C196.137 64.951 194.111 65.49 191.857 65.49ZM191.857 62.158C193.491 62.158 194.928 61.7823 196.169 61.031C197.443 60.2797 198.44 59.2343 199.158 57.895C199.91 56.5557 200.285 55.053 200.285 53.387C200.285 51.721 199.91 50.251 199.158 48.977C198.44 47.6703 197.443 46.6413 196.169 45.89C194.928 45.1387 193.491 44.763 191.857 44.763C190.257 44.763 188.819 45.1387 187.545 45.89C186.271 46.6413 185.275 47.6703 184.556 48.977C183.838 50.251 183.478 51.721 183.478 53.387C183.478 55.0857 183.838 56.6047 184.556 57.944C185.275 59.2507 186.271 60.2797 187.545 61.031C188.819 61.7823 190.257 62.158 191.857 62.158Z" fill="#F7BD1D"/>
<path d="M218.384 65.49C216.522 65.49 214.856 65.0653 213.386 64.216C211.916 63.334 210.756 62.1417 209.907 60.639C209.09 59.1363 208.682 57.3723 208.682 55.347V41.97H212.161V55.2C212.161 56.6047 212.406 57.8297 212.896 58.875C213.419 59.9203 214.154 60.737 215.101 61.325C216.048 61.913 217.143 62.207 218.384 62.207C220.311 62.207 221.83 61.57 222.941 60.296C224.084 59.022 224.656 57.3233 224.656 55.2V41.97H228.086V55.347C228.086 57.3397 227.678 59.1037 226.861 60.639C226.044 62.1743 224.901 63.3667 223.431 64.216C221.961 65.0653 220.279 65.49 218.384 65.49Z" fill="#EF1D1D"/>
<path d="M238.065 65V32.268H241.495V65H238.065ZM232.234 45.057V41.97H247.277V45.057H232.234Z" fill="#3EC3FF"/>
</g>
<g clip-path="url(#clip1_581_2)">
<mask id="mask0_581_2" style="mask-type:luminance" maskUnits="userSpaceOnUse" x="0" y="7" width="84" height="82">
<path d="M57.75 7H26.25C11.7525 7 0 18.4727 0 32.625V63.375C0 77.5273 11.7525 89 26.25 89H57.75C72.2475 89 84 77.5273 84 63.375V32.625C84 18.4727 72.2475 7 57.75 7Z" fill="white"/>
</mask>
<g mask="url(#mask0_581_2)">
<mask id="mask1_581_2" style="mask-type:alpha" maskUnits="userSpaceOnUse" x="0" y="6" width="73" height="37">
<path d="M67.8593 6.61083L0.814301 19.8829L5.31099 41.5295L72.356 28.2575L67.8593 6.61083Z" fill="#D9D9D9" stroke="black"/>
</mask>
<g mask="url(#mask1_581_2)">
<path d="M42.0252 84.3436C62.2392 84.3436 78.6258 68.3471 78.6258 48.6145C78.6258 28.8819 62.2392 12.8854 42.0252 12.8854C21.8113 12.8854 5.42471 28.8819 5.42471 48.6145C5.42471 68.3471 21.8113 84.3436 42.0252 84.3436Z" fill="#1DAEEF" stroke="#1D1D1D"/>
</g>
<mask id="mask2_581_2" style="mask-type:alpha" maskUnits="userSpaceOnUse" x="0" y="27" width="93" height="57">
<path d="M34.9194 47.314L6.84595 43.0722L1.12421 79.1581L29.1977 83.3999L34.9194 47.314Z" fill="#D9D9D9" stroke="black"/>
<path d="M68.7994 28.0844L48.2498 44.5268L70.9947 71.6158L91.5443 55.1734L68.7994 28.0844Z" fill="#D9D9D9" stroke="black"/>
</mask>
<g mask="url(#mask2_581_2)">
<mask id="mask3_581_2" style="mask-type:alpha" maskUnits="userSpaceOnUse" x="47" y="39" width="39" height="37">
<path d="M79.1431 39.9378L48.0536 46.0922L54.0595 75.0044L85.149 68.85L79.1431 39.9378Z" fill="#D9D9D9" stroke="black"/>
</mask>
<g mask="url(#mask3_581_2)">
<path d="M42.0238 84.3428C62.2377 84.3428 78.6243 68.3464 78.6243 48.6137C78.6243 28.8811 62.2377 12.8846 42.0238 12.8846C21.8099 12.8846 5.42325 28.8811 5.42325 48.6137C5.42325 68.3464 21.8099 84.3428 42.0238 84.3428Z" fill="#F7BD1D" stroke="#1D1D1D"/>
</g>
<mask id="mask4_581_2" style="mask-type:alpha" maskUnits="userSpaceOnUse" x="4" y="47" width="39" height="40">
<path d="M35.5705 48.5633L4.79474 54.6556L11.3485 86.2047L42.1242 80.1124L35.5705 48.5633Z" fill="#D9D9D9" stroke="black"/>
</mask>
<g mask="url(#mask4_581_2)">
<path d="M42.0238 84.3428C62.2378 84.3428 78.6244 68.3464 78.6244 48.6137C78.6244 28.8811 62.2378 12.8846 42.0238 12.8846C21.8099 12.8846 5.42331 28.8811 5.42331 48.6137C5.42331 68.3464 21.8099 84.3428 42.0238 84.3428Z" fill="#EF1D1D" stroke="#1D1D1D"/>
</g>
</g>
<path d="M6.04297 42.0195L72.4996 28.8154" stroke="#1D1D1D" stroke-linecap="round"/>
<path d="M29.8984 82.3359L35.0894 48.396" stroke="#1D1D1D" stroke-linecap="round"/>
<path d="M70.1613 71.4697L48.7332 45.6767" stroke="#1D1D1D" stroke-linecap="round"/>
<path d="M77.5233 39.8659L48.7316 45.6819" stroke="#1D1D1D" stroke-linecap="round"/>
<path d="M5.83594 53.9883L35.0741 48.3884" stroke="#1D1D1D" stroke-linecap="round"/>
<path fill-rule="evenodd" clip-rule="evenodd" d="M42.8345 48.2934L43.3805 51.9488L44.194 51.7623L43.0397 48.2548L42.8345 48.2934ZM44.2925 58.0546L43.5326 52.9668L44.5162 52.7413L46.1135 57.5949L44.2925 58.0546ZM44.5211 59.5851L45.7503 67.8143L49.1908 66.9456L46.596 59.0613L44.5211 59.5851ZM48.1794 84.0764L46.1313 70.365L49.9951 69.3897L54.3385 82.5886L48.1794 84.0764Z" fill="#5B5B5B"/>
<path d="M54.3028 82.5061L49.9824 69.424" stroke="#1D1D1D" stroke-linecap="round"/>
<path d="M54.2908 82.5056L48.2382 84.0421" stroke="#1D1D1D" stroke-linecap="round"/>
<path d="M46.1634 70.3619L48.2345 84.0216" stroke="#1D1D1D" stroke-linecap="round"/>
<path d="M46.1743 70.3588L49.9768 69.421" stroke="#1D1D1D" stroke-linecap="round"/>
<path d="M45.7474 67.8051L49.1897 66.963" stroke="#1D1D1D" stroke-linecap="round"/>
<path d="M46.6014 59.1223L49.1905 66.9523" stroke="#1D1D1D" stroke-linecap="round"/>
<path d="M46.5851 59.1248L44.5354 59.5805" stroke="#1D1D1D" stroke-linecap="round"/>
<path d="M46.06 57.5009L44.5263 52.7692" stroke="#1D1D1D" stroke-linecap="round"/>
<path d="M43.542 52.9675L44.5142 52.767" stroke="#1D1D1D" stroke-linecap="round"/>
<path d="M43.5442 52.9991L44.2423 58.0146" stroke="#1D1D1D" stroke-linecap="round"/>
<path d="M46.0725 57.552L44.2515 58.0111" stroke="#1D1D1D" stroke-linecap="round"/>
<path d="M44.1183 51.4501L43.3546 51.6255" stroke="#1D1D1D" stroke-linecap="round"/>
<path d="M44.1094 51.4141L43.0312 48.2773" stroke="#1D1D1D" stroke-linecap="round"/>
<path d="M43.3437 51.5781L42.853 48.3078" stroke="#1D1D1D" stroke-linecap="round"/>
<path d="M43.0165 48.2438L42.8659 48.2721" stroke="#1D1D1D" stroke-linecap="round"/>
<path d="M45.7424 67.7748L44.5449 59.5871" stroke="#1D1D1D" stroke-linecap="round"/>
</g>
</g>
</g>
<defs>
<filter id="filter0_d_581_2" x="79.8005" y="27.466" width="171.476" height="56.902" filterUnits="userSpaceOnUse" color-interpolation-filters="sRGB">
<feFlood flood-opacity="0" result="BackgroundImageFix"/>
<feColorMatrix in="SourceAlpha" type="matrix" values="0 0 0 0 0 0 0 0 0 0 0 0 0 0 0 0 0 0 127 0" result="hardAlpha"/>
<feOffset dy="4"/>
<feGaussianBlur stdDeviation="2"/>
<feComposite in2="hardAlpha" operator="out"/>
<feColorMatrix type="matrix" values="0 0 0 0 0 0 0 0 0 0 0 0 0 0 0 0 0 0 0.25 0"/>
<feBlend mode="normal" in2="BackgroundImageFix" result="effect1_dropShadow_581_2"/>
<feBlend mode="normal" in="SourceGraphic" in2="effect1_dropShadow_581_2" result="shape"/>
</filter>
<clipPath id="clip0_581_2">
<rect width="250" height="100" fill="white"/>
</clipPath>
<clipPath id="clip1_581_2">
<rect width="84" height="82" fill="white" transform="translate(0 7)"/>
</clipPath>
</defs>
</svg>
