<svg width="250" height="100" viewBox="0 0 250 100" fill="none" xmlns="http://www.w3.org/2000/svg">
<g clip-path="url(#clip0_426_555)">
<g filter="url(#filter0_d_426_555)">
<path d="M19.9278 33.416H28.5678V40.472H19.9278V58.616C19.9278 62.264 21.3198 64.088 24.1038 64.088C25.3998 64.088 26.9118 63.632 28.6398 62.72V70.568C27.4398 71 26.3118 71.312 25.2558 71.504C24.2478 71.744 23.0958 71.864 21.7998 71.864C14.2158 71.864 10.4238 67.448 10.4238 58.616V40.472H4.95181V33.416H10.4238V23.336L19.9278 20.024V33.416ZM58.2599 32.552V41.912H57.0359C53.2919 41.912 50.2439 42.944 47.8919 45.008V71H38.3879V41.768L36.8039 33.416H46.3079L47.2439 38.384C48.8279 36.224 50.2679 34.712 51.5639 33.848C52.8599 32.984 54.2999 32.552 55.8839 32.552H58.2599ZM72.1503 27.8C70.5183 27.8 69.1263 27.248 67.9743 26.144C66.8223 25.04 66.2463 23.6 66.2463 21.824C66.2463 20.048 66.8223 18.608 67.9743 17.504C69.1263 16.4 70.5183 15.848 72.1503 15.848C73.7823 15.848 75.1743 16.4 76.3263 17.504C77.4783 18.608 78.0543 20.048 78.0543 21.824C78.0543 23.6 77.4783 25.04 76.3263 26.144C75.1743 27.248 73.7823 27.8 72.1503 27.8ZM76.9023 33.416V71H67.3983V33.488L76.9023 33.416ZM109.826 32.624C112.658 32.624 115.154 33.44 117.314 35.072C119.522 36.656 121.226 38.912 122.426 41.84C123.674 44.72 124.298 48.056 124.298 51.848C124.298 55.592 123.578 59 122.138 62.072C120.698 65.096 118.706 67.496 116.162 69.272C113.666 71 110.834 71.864 107.666 71.864C103.826 71.864 100.418 71.072 97.442 69.488V87.704H87.938V41.768L86.354 33.416H95.066L96.578 38.744C98.306 36.776 100.322 35.264 102.626 34.208C104.93 33.152 107.33 32.624 109.826 32.624ZM105.722 64.016C111.434 64.016 114.29 60.008 114.29 51.992C114.29 48.296 113.714 45.44 112.562 43.424C111.458 41.408 109.826 40.4 107.666 40.4C104.21 40.4 100.802 42.08 97.442 45.44V62.864C100.514 63.632 103.274 64.016 105.722 64.016Z" fill="#2D2D2D"/>
<path d="M163.729 71.72C160.465 71.72 157.489 70.928 154.801 69.344C152.161 67.76 150.049 65.624 148.465 62.936C146.929 60.248 146.161 57.248 146.161 53.936C146.161 50.672 146.929 47.72 148.465 45.08C150.049 42.44 152.161 40.352 154.801 38.816C157.489 37.232 160.465 36.44 163.729 36.44C167.041 36.44 170.017 37.208 172.657 38.744C175.297 40.28 177.385 42.392 178.921 45.08C180.505 47.72 181.297 50.672 181.297 53.936C181.297 57.296 180.505 60.32 178.921 63.008C177.385 65.648 175.297 67.76 172.657 69.344C170.017 70.928 167.041 71.72 163.729 71.72ZM163.729 66.824C166.129 66.824 168.241 66.272 170.065 65.168C171.937 64.064 173.401 62.528 174.457 60.56C175.561 58.592 176.113 56.384 176.113 53.936C176.113 51.488 175.561 49.328 174.457 47.456C173.401 45.536 171.937 44.024 170.065 42.92C168.241 41.816 166.129 41.264 163.729 41.264C161.377 41.264 159.265 41.816 157.393 42.92C155.521 44.024 154.057 45.536 153.001 47.456C151.945 49.328 151.417 51.488 151.417 53.936C151.417 56.432 151.945 58.664 153.001 60.632C154.057 62.552 155.521 64.064 157.393 65.168C159.265 66.272 161.377 66.824 163.729 66.824ZM202.707 71.72C199.971 71.72 197.523 71.096 195.363 69.848C193.203 68.552 191.499 66.8 190.251 64.592C189.051 62.384 188.451 59.792 188.451 56.816V37.16H193.563V56.6C193.563 58.664 193.923 60.464 194.643 62C195.411 63.536 196.491 64.736 197.883 65.6C199.275 66.464 200.883 66.896 202.707 66.896C205.539 66.896 207.771 65.96 209.403 64.088C211.083 62.216 211.923 59.72 211.923 56.6V37.16H216.963V56.816C216.963 59.744 216.363 62.336 215.163 64.592C213.963 66.848 212.283 68.6 210.123 69.848C207.963 71.096 205.491 71.72 202.707 71.72ZM231.626 71V22.904H236.666V71H231.626ZM223.058 41.696V37.16H245.162V41.696H223.058Z" fill="#F7BD1D"/>
</g>
</g>
<defs>
<filter id="filter0_d_426_555" x="0.951782" y="15.848" width="248.21" height="79.856" filterUnits="userSpaceOnUse" color-interpolation-filters="sRGB">
<feFlood flood-opacity="0" result="BackgroundImageFix"/>
<feColorMatrix in="SourceAlpha" type="matrix" values="0 0 0 0 0 0 0 0 0 0 0 0 0 0 0 0 0 0 127 0" result="hardAlpha"/>
<feOffset dy="4"/>
<feGaussianBlur stdDeviation="2"/>
<feComposite in2="hardAlpha" operator="out"/>
<feColorMatrix type="matrix" values="0 0 0 0 0 0 0 0 0 0 0 0 0 0 0 0 0 0 0.25 0"/>
<feBlend mode="normal" in2="BackgroundImageFix" result="effect1_dropShadow_426_555"/>
<feBlend mode="normal" in="SourceGraphic" in2="effect1_dropShadow_426_555" result="shape"/>
</filter>
<clipPath id="clip0_426_555">
<rect width="250" height="100" fill="white"/>
</clipPath>
</defs>
</svg>
