<svg width="160" height="160" viewBox="0 0 160 160" fill="none" xmlns="http://www.w3.org/2000/svg">
<g clip-path="url(#clip0_426_510)">
<circle cx="110" cy="66" r="14.7059" fill="#FFC979"/>
<mask id="mask0_426_510" style="mask-type:alpha" maskUnits="userSpaceOnUse" x="95" y="51" width="30" height="30">
<path d="M110 80.5834C105.938 80.5834 102.491 79.1685 99.6615 76.3386C96.8316 73.5087 95.4167 70.0626 95.4167 66.0001C95.4167 61.9376 96.8316 58.4914 99.6615 55.6615C102.491 52.8317 105.938 51.4167 110 51.4167C114.063 51.4167 117.509 52.8317 120.339 55.6615C123.168 58.4914 124.583 61.9376 124.583 66.0001C124.583 70.0626 123.168 73.5087 120.339 76.3386C117.509 79.1685 114.063 80.5834 110 80.5834Z" fill="#FFC979"/>
</mask>
<g mask="url(#mask0_426_510)">
<rect x="95.2941" y="51.2941" width="14.7059" height="29.4118" fill="#F7BD1D"/>
</g>
<circle cx="50" cy="94" r="14.7059" fill="#EF1D1D"/>
<mask id="mask1_426_510" style="mask-type:alpha" maskUnits="userSpaceOnUse" x="35" y="79" width="30" height="30">
<path d="M50 108.583C45.9375 108.583 42.4913 107.168 39.6615 104.339C36.8316 101.509 35.4167 98.0626 35.4167 94.0001C35.4167 89.9376 36.8316 86.4914 39.6615 83.6615C42.4913 80.8317 45.9375 79.4167 50 79.4167C54.0625 79.4167 57.5087 80.8317 60.3386 83.6615C63.1684 86.4914 64.5834 89.9376 64.5834 94.0001C64.5834 98.0626 63.1684 101.509 60.3386 104.339C57.5087 107.168 54.0625 108.583 50 108.583Z" fill="#FFC979"/>
</mask>
<g mask="url(#mask1_426_510)">
<rect x="35.2941" y="79.2941" width="14.7059" height="29.4118" fill="#FF3E55"/>
</g>
<g clip-path="url(#clip1_426_510)">
<path d="M91 117.5C88.7083 117.5 86.7465 118.324 85.1146 119.972C83.4827 121.621 82.6667 123.602 82.6667 125.917C82.6667 128.231 83.4827 130.213 85.1146 131.861C86.7465 133.509 88.7083 134.333 91 134.333C93.2917 134.333 95.2535 133.509 96.8854 131.861C98.5174 130.213 99.3333 128.231 99.3333 125.917C99.3333 123.602 98.5174 121.621 96.8854 119.972C95.2535 118.324 93.2917 117.5 91 117.5ZM91 75.4167C102.181 85.0257 110.531 93.9509 116.052 102.192C121.573 110.434 124.333 118.061 124.333 125.075C124.333 135.596 120.983 143.977 114.281 150.22C107.58 156.462 99.8195 159.583 91 159.583C82.1806 159.583 74.4202 156.462 67.7188 150.22C61.0174 143.977 57.6667 135.596 57.6667 125.075C57.6667 118.061 60.4271 110.434 65.9479 102.192C71.4688 93.9509 79.8195 85.0257 91 75.4167Z" fill="#EF1D1D"/>
<ellipse cx="93" cy="126.085" rx="17" ry="16.665" fill="#EF1D1D"/>
<path d="M90.64 143.8C86.9067 143.8 83.5467 142.92 80.56 141.16C77.5733 139.4 75.2 137.027 73.44 134.04C71.68 131 70.8 127.613 70.8 123.88C70.8 120.2 71.68 116.893 73.44 113.96C75.2 110.973 77.5733 108.6 80.56 106.84C83.5467 105.08 86.9067 104.2 90.64 104.2C94.32 104.2 97.6533 105.08 100.64 106.84C103.68 108.547 106.08 110.893 107.84 113.88C109.6 116.867 110.48 120.2 110.48 123.88C110.48 127.613 109.6 131 107.84 134.04C106.08 137.027 103.68 139.4 100.64 141.16C97.6533 142.92 94.32 143.8 90.64 143.8ZM90.64 136.84C93.04 136.84 95.1733 136.28 97.04 135.16C98.9067 134.04 100.373 132.52 101.44 130.6C102.507 128.627 103.04 126.387 103.04 123.88C103.04 121.427 102.48 119.24 101.36 117.32C100.293 115.4 98.8267 113.907 96.96 112.84C95.1467 111.72 93.04 111.16 90.64 111.16C88.24 111.16 86.1067 111.72 84.24 112.84C82.3733 113.907 80.9067 115.4 79.84 117.32C78.7733 119.24 78.24 121.427 78.24 123.88C78.24 126.387 78.7733 128.627 79.84 130.6C80.9067 132.52 82.3733 134.04 84.24 135.16C86.1067 136.28 88.24 136.84 90.64 136.84Z" fill="white"/>
</g>
<g clip-path="url(#clip2_426_510)">
<path d="M69 55.125C72.8889 55.125 76.3959 54.1606 79.5209 52.2317C82.6459 50.3029 85.1111 47.7604 86.9167 44.6041C84.4861 42.5701 81.7431 41.0095 78.6875 39.9224C75.632 38.8352 72.4028 38.2916 69 38.2916C65.5972 38.2916 62.3681 38.8352 59.3125 39.9224C56.257 41.0095 53.5139 42.5701 51.0834 44.6041C52.8889 47.7604 55.3542 50.3029 58.4792 52.2317C61.6042 54.1606 65.1111 55.125 69 55.125ZM69 34.0833C71.2917 34.0833 73.2535 33.2592 74.8854 31.6109C76.5174 29.9626 77.3334 27.9812 77.3334 25.6666C77.3334 23.352 76.5174 21.3706 74.8854 19.7224C73.2535 18.0741 71.2917 17.25 69 17.25C66.7084 17.25 64.7465 18.0741 63.1146 19.7224C61.4827 21.3706 60.6667 23.352 60.6667 25.6666C60.6667 27.9812 61.4827 29.9626 63.1146 31.6109C64.7465 33.2592 66.7084 34.0833 69 34.0833ZM69 84.5833C57.8195 74.9743 49.4688 66.0491 43.9479 57.8078C38.4271 49.5665 35.6667 41.9389 35.6667 34.925C35.6667 24.4041 39.0174 16.0225 45.7188 9.78017C52.4202 3.53781 60.1806 0.416626 69 0.416626C77.8195 0.416626 85.5799 3.53781 92.2813 9.78017C98.9827 16.0225 102.333 24.4041 102.333 34.925C102.333 41.9389 99.5729 49.5665 94.0521 57.8078C88.5313 66.0491 80.1806 74.9743 69 84.5833Z" fill="#F7BD1D"/>
<ellipse cx="69" cy="37.4499" rx="21" ry="26.26" fill="#F7BD1D"/>
<path d="M69 42.5C71.2917 42.5 73.2535 41.6759 74.8854 40.0276C76.5174 38.3793 77.3333 36.3979 77.3333 34.0833C77.3333 31.7687 76.5174 29.7873 74.8854 28.1391C73.2535 26.4908 71.2917 25.6667 69 25.6667C66.7083 25.6667 64.7465 26.4908 63.1146 28.1391C61.4826 29.7873 60.6667 31.7687 60.6667 34.0833C60.6667 36.3979 61.4826 38.3793 63.1146 40.0276C64.7465 41.6759 66.7083 42.5 69 42.5ZM69 84.5833C57.8195 74.9743 49.4688 66.0491 43.9479 57.8078C38.4271 49.5665 35.6667 41.9389 35.6667 34.925C35.6667 24.4042 39.0174 16.0226 45.7188 9.7802C52.4201 3.53784 60.1806 0.416656 69 0.416656C77.8195 0.416656 85.5799 3.53784 92.2813 9.7802C98.9826 16.0226 102.333 24.4042 102.333 34.925C102.333 41.9389 99.5729 49.5665 94.0521 57.8078C88.5313 66.0491 80.1806 74.9743 69 84.5833Z" fill="#F7BD1D"/>
<path d="M68.679 23.674H80.631V29.982H68.679V54.799C68.679 56.8463 69.1217 58.5063 70.007 59.779C70.9477 60.9963 72.3033 61.605 74.074 61.605C75.2913 61.605 76.3703 61.4943 77.311 61.273C78.307 60.9963 79.4137 60.5813 80.631 60.028V66.502C79.3583 67.1107 78.141 67.498 76.979 67.664C75.817 67.8853 74.406 67.996 72.746 67.996C69.2047 67.996 66.4103 66.8617 64.363 64.593C62.371 62.3243 61.375 59.3087 61.375 55.546V29.982H53.075V23.674H61.375V12.054L68.679 8.236V23.674Z" fill="white"/>
</g>
</g>
<defs>
<clipPath id="clip0_426_510">
<rect width="160" height="160" rx="50" fill="white"/>
</clipPath>
<clipPath id="clip1_426_510">
<rect width="100" height="101" fill="white" transform="matrix(-1 0 0 -1 141 168)"/>
</clipPath>
<clipPath id="clip2_426_510">
<rect width="100" height="101" fill="white" transform="translate(19 -8)"/>
</clipPath>
</defs>
</svg>
