<svg width="250" height="100" viewBox="0 0 250 100" fill="none" xmlns="http://www.w3.org/2000/svg">
<g clip-path="url(#clip0_426_533)">
<g filter="url(#filter0_d_426_533)">
<path d="M77.69 40.812H84.17V46.104H77.69V59.712C77.69 62.448 78.734 63.816 80.822 63.816C81.794 63.816 82.928 63.474 84.224 62.79V68.676C83.324 69 82.478 69.234 81.686 69.378C80.93 69.558 80.066 69.648 79.094 69.648C73.406 69.648 70.562 66.336 70.562 59.712V46.104H66.458V40.812H70.562V33.252L77.69 30.768V40.812ZM106.439 40.164V47.184H105.521C102.713 47.184 100.427 47.958 98.6631 49.506V69H91.5351V47.076L90.3471 40.812H97.4751L98.1771 44.538C99.3651 42.918 100.445 41.784 101.417 41.136C102.389 40.488 103.469 40.164 104.657 40.164H106.439ZM116.857 36.6C115.633 36.6 114.589 36.186 113.725 35.358C112.861 34.53 112.429 33.45 112.429 32.118C112.429 30.786 112.861 29.706 113.725 28.878C114.589 28.05 115.633 27.636 116.857 27.636C118.081 27.636 119.125 28.05 119.989 28.878C120.853 29.706 121.285 30.786 121.285 32.118C121.285 33.45 120.853 34.53 119.989 35.358C119.125 36.186 118.081 36.6 116.857 36.6ZM120.421 40.812V69H113.293V40.866L120.421 40.812ZM145.114 40.218C147.238 40.218 149.11 40.83 150.73 42.054C152.386 43.242 153.664 44.934 154.564 47.13C155.5 49.29 155.968 51.792 155.968 54.636C155.968 57.444 155.428 60 154.348 62.304C153.268 64.572 151.774 66.372 149.866 67.704C147.994 69 145.87 69.648 143.494 69.648C140.614 69.648 138.058 69.054 135.826 67.866V81.528H128.698V47.076L127.51 40.812H134.044L135.178 44.808C136.474 43.332 137.986 42.198 139.714 41.406C141.442 40.614 143.242 40.218 145.114 40.218ZM142.036 63.762C146.32 63.762 148.462 60.756 148.462 54.744C148.462 51.972 148.03 49.83 147.166 48.318C146.338 46.806 145.114 46.05 143.494 46.05C140.902 46.05 138.346 47.31 135.826 49.83V62.898C138.13 63.474 140.2 63.762 142.036 63.762Z" fill="#2D2D2D"/>
<path d="M185.541 69.54C183.093 69.54 180.861 68.946 178.845 67.758C176.865 66.57 175.281 64.968 174.093 62.952C172.941 60.936 172.365 58.686 172.365 56.202C172.365 53.754 172.941 51.54 174.093 49.56C175.281 47.58 176.865 46.014 178.845 44.862C180.861 43.674 183.093 43.08 185.541 43.08C188.025 43.08 190.257 43.656 192.237 44.808C194.217 45.96 195.783 47.544 196.935 49.56C198.123 51.54 198.717 53.754 198.717 56.202C198.717 58.722 198.123 60.99 196.935 63.006C195.783 64.986 194.217 66.57 192.237 67.758C190.257 68.946 188.025 69.54 185.541 69.54ZM185.541 65.868C187.341 65.868 188.925 65.454 190.293 64.626C191.697 63.798 192.795 62.646 193.587 61.17C194.415 59.694 194.829 58.038 194.829 56.202C194.829 54.366 194.415 52.746 193.587 51.342C192.795 49.902 191.697 48.768 190.293 47.94C188.925 47.112 187.341 46.698 185.541 46.698C183.777 46.698 182.193 47.112 180.789 47.94C179.385 48.768 178.287 49.902 177.495 51.342C176.703 52.746 176.307 54.366 176.307 56.202C176.307 58.074 176.703 59.748 177.495 61.224C178.287 62.664 179.385 63.798 180.789 64.626C182.193 65.454 183.777 65.868 185.541 65.868ZM214.774 69.54C212.722 69.54 210.886 69.072 209.266 68.136C207.646 67.164 206.368 65.85 205.432 64.194C204.532 62.538 204.082 60.594 204.082 58.362V43.62H207.916V58.2C207.916 59.748 208.186 61.098 208.726 62.25C209.302 63.402 210.112 64.302 211.156 64.95C212.2 65.598 213.406 65.922 214.774 65.922C216.898 65.922 218.572 65.22 219.796 63.816C221.056 62.412 221.686 60.54 221.686 58.2V43.62H225.466V58.362C225.466 60.558 225.016 62.502 224.116 64.194C223.216 65.886 221.956 67.2 220.336 68.136C218.716 69.072 216.862 69.54 214.774 69.54ZM236.464 69V32.928H240.244V69H236.464ZM230.038 47.022V43.62H246.616V47.022H230.038Z" fill="#F7BD1D"/>
</g>
<circle cx="49.5" cy="41.5" r="9.11765" fill="#FFC979"/>
<mask id="mask0_426_533" style="mask-type:alpha" maskUnits="userSpaceOnUse" x="40" y="32" width="19" height="19">
<path d="M49.5 50.5417C46.9813 50.5417 44.8446 49.6645 43.0901 47.9099C41.3356 46.1554 40.4583 44.0188 40.4583 41.5C40.4583 38.9813 41.3356 36.8447 43.0901 35.0901C44.8446 33.3356 46.9813 32.4584 49.5 32.4584C52.0188 32.4584 54.1554 33.3356 55.9099 35.0901C57.6644 36.8447 58.5417 38.9813 58.5417 41.5C58.5417 44.0188 57.6644 46.1554 55.9099 47.9099C54.1554 49.6645 52.0188 50.5417 49.5 50.5417Z" fill="#FFC979"/>
</mask>
<g mask="url(#mask0_426_533)">
<rect x="40.3824" y="32.3824" width="9.11765" height="18.2353" fill="#F7BD1D"/>
</g>
<circle cx="12.5" cy="58.5" r="9.11765" fill="#EF1D1D"/>
<mask id="mask1_426_533" style="mask-type:alpha" maskUnits="userSpaceOnUse" x="3" y="49" width="19" height="19">
<path d="M12.5 67.5417C9.98126 67.5417 7.84463 66.6645 6.09011 64.9099C4.3356 63.1554 3.45834 61.0188 3.45834 58.5C3.45834 55.9813 4.3356 53.8447 6.09011 52.0901C7.84463 50.3356 9.98126 49.4584 12.5 49.4584C15.0188 49.4584 17.1554 50.3356 18.9099 52.0901C20.6644 53.8447 21.5417 55.9813 21.5417 58.5C21.5417 61.0188 20.6644 63.1554 18.9099 64.9099C17.1554 66.6645 15.0188 67.5417 12.5 67.5417Z" fill="#FFC979"/>
</mask>
<g mask="url(#mask1_426_533)">
<rect x="3.38235" y="49.3824" width="9.11765" height="18.2353" fill="#FF3E55"/>
</g>
<g clip-path="url(#clip1_426_533)">
<path d="M38 73.5C36.5792 73.5 35.3628 74.0141 34.351 75.0422C33.3392 76.0703 32.8333 77.3063 32.8333 78.75C32.8333 80.1938 33.3392 81.4297 34.351 82.4578C35.3628 83.486 36.5792 84 38 84C39.4208 84 40.6371 83.486 41.6489 82.4578C42.6608 81.4297 43.1667 80.1938 43.1667 78.75C43.1667 77.3063 42.6608 76.0703 41.6489 75.0422C40.6371 74.0141 39.4208 73.5 38 73.5ZM38 47.25C44.9319 53.2438 50.1094 58.811 53.5323 63.9516C56.9552 69.0922 58.6667 73.85 58.6667 78.225C58.6667 84.7875 56.5892 90.0157 52.4344 93.9094C48.2795 97.8032 43.468 99.75 38 99.75C32.5319 99.75 27.7205 97.8032 23.5656 93.9094C19.4108 90.0157 17.3333 84.7875 17.3333 78.225C17.3333 73.85 19.0448 69.0922 22.4677 63.9516C25.8906 58.811 31.068 53.2438 38 47.25Z" fill="#EF1D1D"/>
<ellipse cx="39.24" cy="78.855" rx="10.54" ry="10.395" fill="#EF1D1D"/>
<path d="M38.15 89.5C35.8167 89.5 33.7167 88.95 31.85 87.85C29.9833 86.75 28.5 85.2667 27.4 83.4C26.3 81.5 25.75 79.3833 25.75 77.05C25.75 74.75 26.3 72.6833 27.4 70.85C28.5 68.9833 29.9833 67.5 31.85 66.4C33.7167 65.3 35.8167 64.75 38.15 64.75C40.45 64.75 42.5333 65.3 44.4 66.4C46.3 67.4667 47.8 68.9333 48.9 70.8C50 72.6667 50.55 74.75 50.55 77.05C50.55 79.3833 50 81.5 48.9 83.4C47.8 85.2667 46.3 86.75 44.4 87.85C42.5333 88.95 40.45 89.5 38.15 89.5ZM38.15 85.15C39.65 85.15 40.9833 84.8 42.15 84.1C43.3167 83.4 44.2333 82.45 44.9 81.25C45.5667 80.0167 45.9 78.6167 45.9 77.05C45.9 75.5167 45.55 74.15 44.85 72.95C44.1833 71.75 43.2667 70.8167 42.1 70.15C40.9667 69.45 39.65 69.1 38.15 69.1C36.65 69.1 35.3167 69.45 34.15 70.15C32.9833 70.8167 32.0667 71.75 31.4 72.95C30.7333 74.15 30.4 75.5167 30.4 77.05C30.4 78.6167 30.7333 80.0167 31.4 81.25C32.0667 82.45 32.9833 83.4 34.15 84.1C35.3167 84.8 36.65 85.15 38.15 85.15Z" fill="#E9E9E9"/>
</g>
<path d="M24 34.375C26.4111 34.375 28.5854 33.7734 30.5229 32.5703C32.4604 31.3672 33.9889 29.7813 35.1083 27.8125C33.6014 26.5438 31.9007 25.5703 30.0063 24.8922C28.1118 24.2141 26.1097 23.875 24 23.875C21.8903 23.875 19.8882 24.2141 17.9938 24.8922C16.0993 25.5703 14.3986 26.5438 12.8917 27.8125C14.0111 29.7813 15.5396 31.3672 17.4771 32.5703C19.4146 33.7734 21.5889 34.375 24 34.375ZM24 21.25C25.4208 21.25 26.6372 20.7359 27.649 19.7078C28.6608 18.6797 29.1667 17.4438 29.1667 16C29.1667 14.5563 28.6608 13.3203 27.649 12.2922C26.6372 11.2641 25.4208 10.75 24 10.75C22.5792 10.75 21.3629 11.2641 20.3511 12.2922C19.3392 13.3203 18.8333 14.5563 18.8333 16C18.8333 17.4438 19.3392 18.6797 20.3511 19.7078C21.3629 20.7359 22.5792 21.25 24 21.25ZM24 52.75C17.0681 46.7563 11.8906 41.1891 8.46772 36.0484C5.0448 30.9078 3.33334 26.15 3.33334 21.775C3.33334 15.2125 5.41077 9.98438 9.56564 6.09063C13.7205 2.19688 18.532 0.25 24 0.25C29.4681 0.25 34.2795 2.19688 38.4344 6.09063C42.5892 9.98438 44.6667 15.2125 44.6667 21.775C44.6667 26.15 42.9552 30.9078 39.5323 36.0484C36.1094 41.1891 30.932 46.7563 24 52.75Z" fill="#F7BD1D"/>
<ellipse cx="24" cy="23.35" rx="13.02" ry="16.38" fill="#F7BD1D"/>
<path d="M23.65 15.9H30.85V19.7H23.65V34.65C23.65 35.8833 23.9167 36.8833 24.45 37.65C25.0167 38.3833 25.8333 38.75 26.9 38.75C27.6333 38.75 28.2833 38.6833 28.85 38.55C29.45 38.3833 30.1167 38.1333 30.85 37.8V41.7C30.0833 42.0667 29.35 42.3 28.65 42.4C27.95 42.5333 27.1 42.6 26.1 42.6C23.9667 42.6 22.2833 41.9167 21.05 40.55C19.85 39.1833 19.25 37.3667 19.25 35.1V19.7H14.25V15.9H19.25V8.9L23.65 6.6V15.9Z" fill="#E9E9E9"/>
</g>
<defs>
<filter id="filter0_d_426_533" x="62.458" y="27.636" width="188.157" height="61.892" filterUnits="userSpaceOnUse" color-interpolation-filters="sRGB">
<feFlood flood-opacity="0" result="BackgroundImageFix"/>
<feColorMatrix in="SourceAlpha" type="matrix" values="0 0 0 0 0 0 0 0 0 0 0 0 0 0 0 0 0 0 127 0" result="hardAlpha"/>
<feOffset dy="4"/>
<feGaussianBlur stdDeviation="2"/>
<feComposite in2="hardAlpha" operator="out"/>
<feColorMatrix type="matrix" values="0 0 0 0 0 0 0 0 0 0 0 0 0 0 0 0 0 0 0.25 0"/>
<feBlend mode="normal" in2="BackgroundImageFix" result="effect1_dropShadow_426_533"/>
<feBlend mode="normal" in="SourceGraphic" in2="effect1_dropShadow_426_533" result="shape"/>
</filter>
<clipPath id="clip0_426_533">
<rect width="250" height="100" fill="white"/>
</clipPath>
<clipPath id="clip1_426_533">
<rect width="62" height="63" fill="white" transform="matrix(-1 0 0 -1 69 105)"/>
</clipPath>
</defs>
</svg>
