<svg width="400" height="100" viewBox="0 0 400 100" fill="none" xmlns="http://www.w3.org/2000/svg">
<g clip-path="url(#clip0_1084_1169)">
<g filter="url(#filter0_d_1084_1169)">
<path d="M53.5827 24.4053H37.5379V14.6002H80.324V24.4053H64.2792V71H53.5827V24.4053ZM111.328 27.7277V38.2622H109.951C105.737 38.2622 102.307 39.4237 99.6595 41.7466V71H88.963V38.1001L87.1802 28.7001H97.8768L98.9302 34.2915C100.713 31.8605 102.334 30.1587 103.792 29.1863C105.251 28.2139 106.872 27.7277 108.654 27.7277H111.328ZM126.962 22.3795C125.125 22.3795 123.558 21.7582 122.262 20.5157C120.965 19.2732 120.317 17.6525 120.317 15.6536C120.317 13.6548 120.965 12.0341 122.262 10.7916C123.558 9.54904 125.125 8.92778 126.962 8.92778C128.798 8.92778 130.365 9.54904 131.662 10.7916C132.958 12.0341 133.607 13.6548 133.607 15.6536C133.607 17.6525 132.958 19.2732 131.662 20.5157C130.365 21.7582 128.798 22.3795 126.962 22.3795ZM132.31 28.7001V71H121.613V28.7812L132.31 28.7001ZM169.365 27.8088C172.552 27.8088 175.361 28.7271 177.792 30.5639C180.277 32.3467 182.195 34.8857 183.546 38.1811C184.95 41.4225 185.653 45.1771 185.653 49.4449C185.653 53.6587 184.842 57.4943 183.222 60.9518C181.601 64.3552 179.359 67.0563 176.496 69.0552C173.687 71 170.499 71.9724 166.934 71.9724C162.612 71.9724 158.776 71.081 155.427 69.2983V89.7999H144.73V38.1001L142.948 28.7001H152.753L154.454 34.6967C156.399 32.4817 158.668 30.78 161.261 29.5915C163.854 28.403 166.556 27.8088 169.365 27.8088ZM164.746 63.1397C171.175 63.1397 174.389 58.6288 174.389 49.607C174.389 45.4472 173.741 42.2328 172.444 39.9639C171.202 37.6949 169.365 36.5605 166.934 36.5605C163.044 36.5605 159.208 38.4513 155.427 42.2328V61.8431C158.884 62.7075 161.991 63.1397 164.746 63.1397Z" fill="#FF596D"/>
</g>
<g filter="url(#filter1_d_1084_1169)">
<path d="M246.829 71.9724C241.049 71.9724 236.079 70.7839 231.919 68.4069C227.759 66.0299 224.599 62.6535 222.438 58.2776C220.277 53.9018 219.196 48.7426 219.196 42.8001C219.196 36.8576 220.277 31.6984 222.438 27.3225C224.599 22.9467 227.759 19.5703 231.919 17.1933C236.079 14.8163 241.049 13.6278 246.829 13.6278C252.609 13.6278 257.58 14.8163 261.739 17.1933C265.899 19.5703 269.059 22.9467 271.22 27.3225C273.381 31.6984 274.462 36.8576 274.462 42.8001C274.462 48.7426 273.381 53.9018 271.22 58.2776C269.059 62.6535 265.899 66.0299 261.739 68.4069C257.58 70.7839 252.609 71.9724 246.829 71.9724ZM246.829 62.0862C251.907 62.0862 255.905 60.4385 258.822 57.1431C261.739 53.7937 263.198 49.0127 263.198 42.8001C263.198 36.5875 261.739 31.8335 258.822 28.5381C255.905 25.1886 251.907 23.5139 246.829 23.5139C241.751 23.5139 237.753 25.1886 234.836 28.5381C231.919 31.8335 230.46 36.5875 230.46 42.8001C230.46 49.0127 231.919 53.7937 234.836 57.1431C237.753 60.4385 241.751 62.0862 246.829 62.0862ZM317.154 71L315.614 65.4897C312.859 67.9207 310.428 69.6224 308.321 70.5948C306.269 71.5132 303.919 71.9724 301.271 71.9724C298.732 71.9724 296.409 71.3782 294.302 70.1897C292.25 69.0012 290.629 67.3805 289.44 65.3276C288.306 63.2207 287.739 60.8707 287.739 58.2776V28.7001H298.435V52.2001C298.435 55.6035 298.975 58.1696 300.056 59.8983C301.136 61.627 302.703 62.4914 304.756 62.4914C306.485 62.4914 308.105 62.1132 309.618 61.3569C311.131 60.6006 312.751 59.3851 314.48 57.7104V28.7001H325.176V61.6L326.959 71H317.154ZM351.727 28.7001H361.451V36.6415H351.727V57.0621C351.727 61.1678 353.294 63.2207 356.427 63.2207C357.886 63.2207 359.588 62.7075 361.532 61.6811V70.5138C360.182 71 358.912 71.3511 357.724 71.5672C356.589 71.8374 355.293 71.9724 353.834 71.9724C345.299 71.9724 341.031 67.0023 341.031 57.0621V36.6415H334.872V28.7001H341.031V17.3553L351.727 13.6278V28.7001Z" fill="#8EDCFF"/>
</g>
</g>
<defs>
<filter id="filter0_d_1084_1169" x="32.4733" y="8.92778" width="158.244" height="91.0014" filterUnits="userSpaceOnUse" color-interpolation-filters="sRGB">
<feFlood flood-opacity="0" result="BackgroundImageFix"/>
<feColorMatrix in="SourceAlpha" type="matrix" values="0 0 0 0 0 0 0 0 0 0 0 0 0 0 0 0 0 0 127 0" result="hardAlpha"/>
<feOffset dy="5.06464"/>
<feGaussianBlur stdDeviation="2.53232"/>
<feComposite in2="hardAlpha" operator="out"/>
<feColorMatrix type="matrix" values="0 0 0 0 0 0 0 0 0 0 0 0 0 0 0 0 0 0 0.25 0"/>
<feBlend mode="normal" in2="BackgroundImageFix" result="effect1_dropShadow_1084_1169"/>
<feBlend mode="normal" in="SourceGraphic" in2="effect1_dropShadow_1084_1169" result="shape"/>
</filter>
<filter id="filter1_d_1084_1169" x="214.132" y="13.6278" width="152.465" height="68.4739" filterUnits="userSpaceOnUse" color-interpolation-filters="sRGB">
<feFlood flood-opacity="0" result="BackgroundImageFix"/>
<feColorMatrix in="SourceAlpha" type="matrix" values="0 0 0 0 0 0 0 0 0 0 0 0 0 0 0 0 0 0 127 0" result="hardAlpha"/>
<feOffset dy="5.06464"/>
<feGaussianBlur stdDeviation="2.53232"/>
<feComposite in2="hardAlpha" operator="out"/>
<feColorMatrix type="matrix" values="0 0 0 0 0 0 0 0 0 0 0 0 0 0 0 0 0 0 0.25 0"/>
<feBlend mode="normal" in2="BackgroundImageFix" result="effect1_dropShadow_1084_1169"/>
<feBlend mode="normal" in="SourceGraphic" in2="effect1_dropShadow_1084_1169" result="shape"/>
</filter>
<clipPath id="clip0_1084_1169">
<rect width="400" height="100" rx="50" fill="white"/>
</clipPath>
</defs>
</svg>
