<svg width="512" height="512" viewBox="0 0 512 512" fill="none" xmlns="http://www.w3.org/2000/svg">
<g clip-path="url(#clip0_1084_881)">
<mask id="path-2-inside-1_1084_881" fill="white">
<path fill-rule="evenodd" clip-rule="evenodd" d="M391.431 290.559C372.274 262.327 343.297 231.751 304.5 198.833C265.704 231.751 236.727 262.327 217.569 290.559C198.412 318.792 188.833 344.922 188.833 368.95C188.833 404.992 200.46 433.705 223.714 455.09C246.968 476.474 273.897 487.167 304.5 487.167C335.104 487.167 362.032 476.474 385.286 455.09C408.54 433.705 420.167 404.992 420.167 368.95C420.167 344.922 410.588 318.792 391.431 290.559Z"/>
</mask>
<path fill-rule="evenodd" clip-rule="evenodd" d="M391.431 290.559C372.274 262.327 343.297 231.751 304.5 198.833C265.704 231.751 236.727 262.327 217.569 290.559C198.412 318.792 188.833 344.922 188.833 368.95C188.833 404.992 200.46 433.705 223.714 455.09C246.968 476.474 273.897 487.167 304.5 487.167C335.104 487.167 362.032 476.474 385.286 455.09C408.54 433.705 420.167 404.992 420.167 368.95C420.167 344.922 410.588 318.792 391.431 290.559Z" fill="#44A4CC"/>
<path d="M304.5 198.833L307.088 195.783L304.5 193.587L301.912 195.783L304.5 198.833ZM391.431 290.559L388.121 292.805L388.121 292.805L391.431 290.559ZM217.569 290.559L220.879 292.805L220.879 292.805L217.569 290.559ZM223.714 455.09L221.007 458.034L221.007 458.034L223.714 455.09ZM385.286 455.09L382.578 452.145L382.578 452.145L385.286 455.09ZM301.912 201.883C340.554 234.67 369.24 264.98 388.121 292.805L394.741 288.313C375.307 259.673 346.039 228.833 307.088 195.783L301.912 201.883ZM220.879 292.805C239.76 264.98 268.446 234.67 307.088 201.883L301.912 195.783C262.961 228.833 233.693 259.673 214.259 288.313L220.879 292.805ZM192.833 368.95C192.833 345.994 201.99 320.642 220.879 292.805L214.259 288.313C194.834 316.942 184.833 343.85 184.833 368.95L192.833 368.95ZM226.422 452.145C204.111 431.628 192.833 404.046 192.833 368.95L184.833 368.95C184.833 405.937 196.809 435.782 221.007 458.034L226.422 452.145ZM304.5 483.167C274.935 483.167 248.964 472.875 226.422 452.145L221.007 458.034C244.972 480.073 272.858 491.167 304.5 491.167L304.5 483.167ZM382.578 452.145C360.037 472.875 334.065 483.167 304.5 483.167L304.5 491.167C336.142 491.167 364.028 480.073 387.994 458.034L382.578 452.145ZM416.167 368.95C416.167 404.046 404.889 431.628 382.578 452.145L387.994 458.034C412.191 435.782 424.167 405.937 424.167 368.95L416.167 368.95ZM388.121 292.805C407.01 320.642 416.167 345.994 416.167 368.95L424.167 368.95C424.167 343.85 414.166 316.942 394.741 288.313L388.121 292.805Z" fill="white" mask="url(#path-2-inside-1_1084_881)"/>
<path d="M304.721 288.966C320.517 288.966 334.099 292.214 345.467 298.71C356.834 305.206 365.47 314.432 371.375 326.39C377.281 338.348 380.233 352.447 380.233 368.686C380.233 384.925 377.281 399.023 371.375 410.981C365.47 422.939 356.834 432.166 345.467 438.662C334.099 445.157 320.517 448.405 304.721 448.405C288.925 448.405 275.343 445.157 263.976 438.662C252.608 432.166 243.972 422.939 238.067 410.981C232.162 399.023 229.209 384.925 229.209 368.686C229.209 352.447 232.162 338.348 238.067 326.39C243.972 314.432 252.608 305.206 263.976 298.71C275.343 292.214 288.925 288.966 304.721 288.966ZM304.721 315.982C290.844 315.982 279.92 320.485 271.948 329.49C263.976 338.643 259.99 351.709 259.99 368.686C259.99 385.663 263.976 398.654 271.948 407.66C279.92 416.813 290.844 421.389 304.721 421.389C318.598 421.389 329.523 416.813 337.495 407.66C345.467 398.654 349.453 385.663 349.453 368.686C349.453 351.709 345.467 338.643 337.495 329.49C329.523 320.485 318.598 315.982 304.721 315.982Z" fill="white"/>
<mask id="path-5-inside-2_1084_881" fill="white">
<path fill-rule="evenodd" clip-rule="evenodd" d="M121.07 221.225C140.117 249.376 168.927 279.863 207.5 312.686C246.073 279.863 274.883 249.376 293.93 221.225C312.977 193.074 322.5 167.02 322.5 143.061C322.5 107.124 310.94 78.4936 287.82 57.1707C264.7 35.8477 237.927 25.1863 207.5 25.1863C177.073 25.1863 150.299 35.8477 127.18 57.1707C104.06 78.4936 92.5 107.124 92.5 143.061C92.5 167.02 102.023 193.074 121.07 221.225Z"/>
</mask>
<path fill-rule="evenodd" clip-rule="evenodd" d="M121.07 221.225C140.117 249.376 168.927 279.863 207.5 312.686C246.073 279.863 274.883 249.376 293.93 221.225C312.977 193.074 322.5 167.02 322.5 143.061C322.5 107.124 310.94 78.4936 287.82 57.1707C264.7 35.8477 237.927 25.1863 207.5 25.1863C177.073 25.1863 150.299 35.8477 127.18 57.1707C104.06 78.4936 92.5 107.124 92.5 143.061C92.5 167.02 102.023 193.074 121.07 221.225Z" fill="#EF1D1D"/>
<path d="M207.5 312.686L204.908 315.733L207.5 317.938L210.092 315.733L207.5 312.686ZM121.07 221.225L124.383 218.984L124.383 218.984L121.07 221.225ZM287.82 57.1707L290.532 54.2303L290.532 54.2303L287.82 57.1707ZM127.18 57.1707L124.468 54.2303L124.468 54.2303L127.18 57.1707ZM210.092 309.64C171.674 276.949 143.154 246.727 124.383 218.984L117.757 223.467C137.08 252.025 166.18 282.778 204.908 315.733L210.092 309.64ZM290.617 218.984C271.846 246.727 243.326 276.949 204.908 309.64L210.092 315.733C248.82 282.778 277.92 252.025 297.243 223.467L290.617 218.984ZM318.5 143.061C318.5 165.951 309.396 191.229 290.617 218.984L297.243 223.467C316.557 194.92 326.5 168.089 326.5 143.061H318.5ZM285.108 60.111C307.286 80.5654 318.5 108.065 318.5 143.061H326.5C326.5 106.182 314.594 76.4217 290.532 54.2303L285.108 60.111ZM207.5 29.1863C236.885 29.1863 262.7 39.4441 285.108 60.111L290.532 54.2303C266.701 32.2513 238.969 21.1863 207.5 21.1863V29.1863ZM129.892 60.111C152.3 39.4441 178.115 29.1863 207.5 29.1863V21.1863C176.031 21.1863 148.299 32.2513 124.468 54.2303L129.892 60.111ZM96.5 143.061C96.5 108.065 107.713 80.5654 129.892 60.111L124.468 54.2303C100.406 76.4217 88.5 106.182 88.5 143.061H96.5ZM124.383 218.984C105.604 191.229 96.5 165.951 96.5 143.061H88.5C88.5 168.089 98.4427 194.92 117.757 223.467L124.383 218.984Z" fill="white" mask="url(#path-5-inside-2_1084_881)"/>
<path d="M191.823 115.06H148.105V88.3431H264.687V115.06H220.969V242.02H191.823V115.06Z" fill="white"/>
</g>
<defs>
<clipPath id="clip0_1084_881">
<rect width="512" height="512" rx="100" fill="white"/>
</clipPath>
</defs>
</svg>
